<?xml version="1.0" encoding="utf-8"?>
<!-- Generator: Adobe Illustrator 27.2.0, SVG Export Plug-In . SVG Version: 6.00 Build 0)  -->
<svg version="1.1" id="Design" xmlns="http://www.w3.org/2000/svg" xmlns:xlink="http://www.w3.org/1999/xlink" x="0px" y="0px"
	 viewBox="0 0 4125 2970" style="enable-background:new 0 0 4125 2970;" xml:space="preserve">
<style type="text/css">
	.st0{fill:#9A1A24;}
</style>
<g>
	<rect x="990" y="1003.8" class="st0" width="165" height="962.5"/>
	<polygon class="st0" points="1980,1966.2 2475,1966.2 2475,1815 2145,1815 2145,1553.8 2433.8,1553.8 2433.8,1402.5 2145,1402.5 
		2145,1155 2475,1155 2475,1003.8 1980,1003.8 	"/>
	<path class="st0" d="M1306.2,1285.6c0,309.4,357.5,220,357.5,391.9v41.2c0,55-13.8,110-96.2,110s-96.2-55-96.2-110v-96.2h-165v110
		c0,137.5,96.2,247.5,261.2,247.5s261.2-110,261.2-247.5v-68.8c0-302.5-357.5-220-357.5-391.9v-20.6c0-55,13.8-110,96.2-110
		s96.2,55,96.2,110v96.2h165v-110c0-137.5-96.2-247.5-261.2-247.5s-261.2,110-261.2,247.5V1285.6z"/>
	<path class="st0" d="M2777.5,1450.6V1155h96.2c82.5,0,96.2,55,96.2,110v75.6c0,55-13.8,110-96.2,110H2777.5z M2612.5,1966.2h165
		v-364.4h96.2c165,0,261.2-110,261.2-247.5v-103.1c0-137.5-96.2-247.5-261.2-247.5h-261.2V1966.2z"/>
</g>
</svg>
